<?xml version="1.0" encoding="UTF-8" standalone="no"?>
<!-- Created with Inkscape (http://www.inkscape.org/) -->

<svg
   xmlns:dc="http://purl.org/dc/elements/1.1/"
   xmlns:cc="http://creativecommons.org/ns#"
   xmlns:rdf="http://www.w3.org/1999/02/22-rdf-syntax-ns#"
   xmlns:svg="http://www.w3.org/2000/svg"
   xmlns="http://www.w3.org/2000/svg"
   xmlns:sodipodi="http://sodipodi.sourceforge.net/DTD/sodipodi-0.dtd"
   xmlns:inkscape="http://www.inkscape.org/namespaces/inkscape"
   width="600mm"
   height="400mm"
   viewBox="0 0 600 400"
   version="1.1"
   id="svg8"
   inkscape:version="0.92.2 5c3e80d, 2017-08-06"
   sodipodi:docname="Music_Box_Proto1.svg">
  <sodipodi:namedview
     id="base"
     pagecolor="#ffffff"
     bordercolor="#666666"
     borderopacity="1.0"
     inkscape:pageopacity="0.0"
     inkscape:pageshadow="2"
     inkscape:zoom="0.39830712"
     inkscape:cx="1810.1849"
     inkscape:cy="532.00407"
     inkscape:document-units="mm"
     inkscape:current-layer="svg8"
     showgrid="false"
     inkscape:window-width="1401"
     inkscape:window-height="855"
     inkscape:window-x="0"
     inkscape:window-y="1"
     inkscape:window-maximized="1"
     width="600mm" />
  <defs
     id="defs2" />
  <metadata
     id="metadata5">
    <rdf:RDF>
      <cc:Work
         rdf:about="">
        <dc:format>image/svg+xml</dc:format>
        <dc:type
           rdf:resource="http://purl.org/dc/dcmitype/StillImage" />
        <dc:title></dc:title>
      </cc:Work>
    </rdf:RDF>
  </metadata>
  <g
     transform="translate(0,103)"
     inkscape:label="Layer 1"
     inkscape:groupmode="layer"
     id="layer1" />
  <g
     transform="translate(0,103)"
     inkscape:label="newlayer"
     inkscape:groupmode="layer"
     id="g867" />
  <g
     id="g992"
     inkscape:groupmode="layer"
     inkscape:label="newlayer" />
  <g
     inkscape:label="newlayer"
     inkscape:groupmode="layer"
     id="g1102" />
  <g
     id="g1325"
     inkscape:groupmode="layer"
     inkscape:label="newlayer" />
  <g
     inkscape:label="newlayer"
     inkscape:groupmode="layer"
     id="g1415" />
  <g
     id="g1551"
     inkscape:groupmode="layer"
     inkscape:label="newlayer" />
  <g
     id="g1663"
     transform="translate(-143.9978,-162.46563)">
    <path
       d="m 150,223 h 6.11327 v -3 h 6.1 v 3 h 6.06326 v -3 h 6.1 v 3 h 6.06327 v -3 h 6.1 v 3 h 6.06326 v -3 h 6.1 v 3 h 6.06327 v -3 h 6.1 v 3 h 6.06326 v -3 h 6.1 v 3 h 6.06327 v -3 h 6.1 v 3 h 6.06326 v -3 h 6.1 v 3 h 6.06327 v -3 h 6.1 v 3 h 6.06326 v -3 h 6.1 v 3 h 6.06327 v -3 h 6.1 v 3 h 6.06326 v -3 h 6.1 v 3 h 6.06327 v -3 h 6.1 v 3 h 6.06326 v -3 h 6.1 v 3 h 6.06327 v -3 h 6.1 v 3 h 6.06326 v -3 h 6.1 v 3 h 6.06327 v -3 h 6.1 v 3 h 6.06327 v -3 h 6.1 v 3 h 6.06326 v -3 h 6.1 v 3 h 6.06327 v -3 h 6.1 v 3 h 6.06326 v -3 h 6.1 v 3 h 6.06327 v -3 h 6.1 v 3 h 6.06326 v -3 h 6.1 v 3 h 6.06327 v -3 h 6.1 v 3 h 6.06326 v -3 h 6.1 v 3 h 6.06327 v -3 h 6.1 v 3 h 6.06326 v -3 h 6.1 v 3 h 6.06327 v -3 h 6.1 v 3 h 6.06326 v -3 h 6.1 v 3 h 6.06327 v -3 h 6.1 v 3 h 6.06326 v -3 h 6.1 v 3 h 6.06327 v -3 h 6.1 v 3 h 6.06327 v -3 h 6.1 v 3 h 6.06326 v -3 h 6.1 v 3 h 6.06327 v -3 h 6.1 v 3 h 6.06326 v -3 h 6.1 v 3 h 6.06327 v -3 h 6.1 v 3 h 6.06326 v -3 h 6.1 v 3 h 6.06327 v -3 h 6.1 v 3 h 6.06326 v -3 h 6.1 v 3 h 6.06327 v -3 h 6.1 v 3 h 6.06326 v -3 h 6.1 v 3 h 6.06327 v -3 h 6.1 v 3 h 6.06326 v -3 h 6.1 v 3 h 6.06327 v -3 h 6.1 v 3 h 6.06326 v -3 h 6.1 v 3 h 6.06327 v -3 h 6.1 v 3 h 6.06326 v -3 h 6.1 v 3 H 740"
       style="fill:none;stroke:#000000;stroke-width:1"
       inkscape:label="part"
       id="path1553"
       inkscape:connector-curvature="0" />
    <path
       d="m 740,223 v 3.93889 h -3 v 5.9 h 3 v 6.98889 h -3 v 5.9 h 3 v 6.98889 h -3 v 5.9 h 3 v 6.98889 h -3 v 5.9 h 3 v 6.98888 h -3 v 5.9 h 3 v 6.98889 h -3 v 5.9 h 3 v 6.98889 h -3 v 5.9 h 3 v 6.98889 h -3 v 5.9 h 3 V 327"
       style="fill:none;stroke:#000000;stroke-width:1"
       inkscape:label="part"
       id="path1555"
       inkscape:connector-curvature="0" />
    <path
       d="m 740,327 h -6.11327 v 3 h -6.1 v -3 h -6.06326 v 3 h -6.1 v -3 h -6.06327 v 3 h -6.1 v -3 h -6.06326 v 3 h -6.1 v -3 h -6.06327 v 3 h -6.1 v -3 h -6.06326 v 3 h -6.1 v -3 h -6.06327 v 3 h -6.1 v -3 h -6.06326 v 3 h -6.1 v -3 h -6.06327 v 3 h -6.1 v -3 h -6.06326 v 3 h -6.1 v -3 h -6.06327 v 3 h -6.1 v -3 h -6.06326 v 3 h -6.1 v -3 h -6.06327 v 3 h -6.1 v -3 h -6.06326 v 3 h -6.1 v -3 h -6.06327 v 3 h -6.1 v -3 h -6.06326 v 3 h -6.1 v -3 h -6.06327 v 3 h -6.1 v -3 h -6.06327 v 3 h -6.1 v -3 h -6.06326 v 3 h -6.1 v -3 h -6.06327 v 3 h -6.1 v -3 h -6.06326 v 3 h -6.1 v -3 h -6.06327 v 3 h -6.1 v -3 h -6.06326 v 3 h -6.1 v -3 h -6.06327 v 3 h -6.1 v -3 h -6.06326 v 3 h -6.1 v -3 h -6.06327 v 3 h -6.1 v -3 h -6.06326 v 3 h -6.1 v -3 h -6.06327 v 3 h -6.1 v -3 h -6.06326 v 3 h -6.1 v -3 h -6.06327 v 3 h -6.1 v -3 h -6.06326 v 3 h -6.1 v -3 h -6.06327 v 3 h -6.1 v -3 h -6.06327 v 3 h -6.1 v -3 h -6.06326 v 3 h -6.1 v -3 h -6.06327 v 3 h -6.1 v -3 h -6.06326 v 3 h -6.1 v -3 h -6.06327 v 3 h -6.1 v -3 h -6.06326 v 3 h -6.1 v -3 h -6.06327 v 3 h -6.1 v -3 h -6.06326 v 3 h -6.1 v -3 h -6.06327 v 3 h -6.1 v -3 h -6.06326 v 3 h -6.1 v -3 h -6.06327 v 3 h -6.1 v -3 h -6.06326 v 3 h -6.1 v -3 h -6.06327 v 3 h -6.1 v -3 h -6.06326 v 3 h -6.1 v -3 h -6.06327 v 3 h -6.1 v -3 h -6.06326 v 3 h -6.1 v -3 H 150"
       style="fill:none;stroke:#000000;stroke-width:1"
       inkscape:label="part"
       id="path1557"
       inkscape:connector-curvature="0" />
    <path
       d="m 150,327 v -3.93889 h 3 v -5.9 h -3 v -6.98889 h 3 v -5.9 h -3 v -6.98889 h 3 v -5.9 h -3 v -6.98889 h 3 v -5.9 h -3 v -6.98888 h 3 v -5.9 h -3 v -6.98889 h 3 v -5.9 h -3 v -6.98889 h 3 v -5.9 h -3 v -6.98889 h 3 v -5.9 h -3 V 223"
       style="fill:none;stroke:#000000;stroke-width:1"
       inkscape:label="part"
       id="path1559"
       inkscape:connector-curvature="0" />
  </g>
  <g
     id="g1669"
     transform="translate(-13.53952,188.82196)">
    <path
       d="m 23,153 h 3.838889 v -3 h 6.1 v 3 h 6.788889 v -3 h 6.1 v 3 h 6.788889 v -3 h 6.1 v 3 h 6.788889 v -3 h 6.1 v 3 h 6.788888 v -3 h 6.1 v 3 h 6.788889 v -3 h 6.1 v 3 h 6.788887 v -3 h 6.1 v 3 h 6.78889 v -3 h 6.1 v 3 H 127"
       style="fill:none;stroke:#000000;stroke-width:1"
       inkscape:label="part"
       id="path1561"
       inkscape:connector-curvature="0" />
    <path
       d="m 127,153 v 4.95 h 3 v 6.1 h -3 v 7.9 h 3 v 6.1 h -3 v 7.9 h 3 v 6.1 h -3 V 197"
       style="fill:none;stroke:#000000;stroke-width:1"
       inkscape:label="part"
       id="path1563"
       inkscape:connector-curvature="0" />
    <path
       d="m 127,197 h -3.83889 v 3 h -6.1 v -3 h -6.78889 v 3 h -6.1 v -3 h -6.788887 v 3 h -6.1 v -3 h -6.788889 v 3 h -6.1 v -3 h -6.788888 v 3 h -6.1 v -3 h -6.788889 v 3 h -6.1 v -3 h -6.788889 v 3 h -6.1 v -3 h -6.788889 v 3 h -6.1 v -3 H 23"
       style="fill:none;stroke:#000000;stroke-width:1"
       inkscape:label="part"
       id="path1565"
       inkscape:connector-curvature="0" />
    <path
       d="m 23,197 v -4.95 h -3 v -6.1 h 3 v -7.9 h -3 v -6.1 h 3 v -7.9 h -3 v -6.1 h 3 V 153"
       style="fill:none;stroke:#000000;stroke-width:1"
       inkscape:label="part"
       id="path1567"
       inkscape:connector-curvature="0" />
  </g>
  <g
     id="g1651"
     transform="translate(-143.8978,20.180211)">
    <path
       d="m 150,150 h 6.21327 v 3 h 5.9 v -3 h 6.26326 v 3 h 5.9 v -3 h 6.26327 v 3 h 5.9 v -3 h 6.26326 v 3 h 5.9 v -3 h 6.26327 v 3 h 5.9 v -3 h 6.26326 v 3 h 5.9 v -3 h 6.26327 v 3 h 5.9 v -3 h 6.26326 v 3 h 5.9 v -3 h 6.26327 v 3 h 5.9 v -3 h 6.26326 v 3 h 5.9 v -3 h 6.26327 v 3 h 5.9 v -3 h 6.26326 v 3 h 5.9 v -3 h 6.26327 v 3 h 5.9 v -3 h 6.26326 v 3 h 5.9 v -3 h 6.26327 v 3 h 5.9 v -3 h 6.26326 v 3 h 5.9 v -3 h 6.26327 v 3 h 5.9 v -3 h 6.26327 v 3 h 5.9 v -3 h 6.26326 v 3 h 5.9 v -3 h 6.26327 v 3 h 5.9 v -3 h 6.26326 v 3 h 5.9 v -3 h 6.26327 v 3 h 5.9 v -3 h 6.26326 v 3 h 5.9 v -3 h 6.26327 v 3 h 5.9 v -3 h 6.26326 v 3 h 5.9 v -3 h 6.26327 v 3 h 5.9 v -3 h 6.26326 v 3 h 5.9 v -3 h 6.26327 v 3 h 5.9 v -3 h 6.26326 v 3 h 5.9 v -3 h 6.26327 v 3 h 5.9 v -3 h 6.26326 v 3 h 5.9 v -3 h 6.26327 v 3 h 5.9 v -3 h 6.26327 v 3 h 5.9 v -3 h 6.26326 v 3 h 5.9 v -3 h 6.26327 v 3 h 5.9 v -3 h 6.26326 v 3 h 5.9 v -3 h 6.26327 v 3 h 5.9 v -3 h 6.26326 v 3 h 5.9 v -3 h 6.26327 v 3 h 5.9 v -3 h 6.26326 v 3 h 5.9 v -3 h 6.26327 v 3 h 5.9 v -3 h 6.26326 v 3 h 5.9 v -3 h 6.26327 v 3 h 5.9 v -3 h 6.26326 v 3 h 5.9 v -3 h 6.26327 v 3 h 5.9 v -3 h 6.26326 v 3 h 5.9 v -3 h 6.26327 v 3 h 5.9 v -3 h 6.26326 v 3 h 5.9 v -3 H 740"
       style="fill:none;stroke:#000000;stroke-width:1"
       inkscape:label="part"
       id="path1569"
       inkscape:connector-curvature="0" />
    <path
       d="m 740,150 v 8.05 h -3 v 5.9 h 3 v 8.1 h -3 v 5.9 h 3 v 8.1 h -3 v 5.9 h 3 V 200"
       style="fill:none;stroke:#000000;stroke-width:1"
       inkscape:label="part"
       id="path1571"
       inkscape:connector-curvature="0" />
    <path
       d="m 740,200 h -6.21327 v -3 h -5.9 v 3 h -6.26326 v -3 h -5.9 v 3 h -6.26327 v -3 h -5.9 v 3 h -6.26326 v -3 h -5.9 v 3 h -6.26327 v -3 h -5.9 v 3 h -6.26326 v -3 h -5.9 v 3 h -6.26327 v -3 h -5.9 v 3 h -6.26326 v -3 h -5.9 v 3 h -6.26327 v -3 h -5.9 v 3 h -6.26326 v -3 h -5.9 v 3 h -6.26327 v -3 h -5.9 v 3 h -6.26326 v -3 h -5.9 v 3 h -6.26327 v -3 h -5.9 v 3 h -6.26326 v -3 h -5.9 v 3 h -6.26327 v -3 h -5.9 v 3 h -6.26326 v -3 h -5.9 v 3 h -6.26327 v -3 h -5.9 v 3 h -6.26327 v -3 h -5.9 v 3 h -6.26326 v -3 h -5.9 v 3 h -6.26327 v -3 h -5.9 v 3 h -6.26326 v -3 h -5.9 v 3 h -6.26327 v -3 h -5.9 v 3 h -6.26326 v -3 h -5.9 v 3 h -6.26327 v -3 h -5.9 v 3 h -6.26326 v -3 h -5.9 v 3 h -6.26327 v -3 h -5.9 v 3 h -6.26326 v -3 h -5.9 v 3 h -6.26327 v -3 h -5.9 v 3 h -6.26326 v -3 h -5.9 v 3 h -6.26327 v -3 h -5.9 v 3 h -6.26326 v -3 h -5.9 v 3 h -6.26327 v -3 h -5.9 v 3 h -6.26327 v -3 h -5.9 v 3 h -6.26326 v -3 h -5.9 v 3 h -6.26327 v -3 h -5.9 v 3 h -6.26326 v -3 h -5.9 v 3 h -6.26327 v -3 h -5.9 v 3 h -6.26326 v -3 h -5.9 v 3 h -6.26327 v -3 h -5.9 v 3 h -6.26326 v -3 h -5.9 v 3 h -6.26327 v -3 h -5.9 v 3 h -6.26326 v -3 h -5.9 v 3 h -6.26327 v -3 h -5.9 v 3 h -6.26326 v -3 h -5.9 v 3 h -6.26327 v -3 h -5.9 v 3 h -6.26326 v -3 h -5.9 v 3 h -6.26327 v -3 h -5.9 v 3 h -6.26326 v -3 h -5.9 v 3 H 150"
       style="fill:none;stroke:#000000;stroke-width:1"
       inkscape:label="part"
       id="path1573"
       inkscape:connector-curvature="0" />
    <path
       d="m 150,200 v -8.05 h 3 v -5.9 h -3 v -8.1 h 3 v -5.9 h -3 v -8.1 h 3 v -5.9 h -3 V 150"
       style="fill:none;stroke:#000000;stroke-width:1"
       inkscape:label="part"
       id="path1575"
       inkscape:connector-curvature="0" />
  </g>
  <g
     id="g1645"
     transform="translate(-635.06765,189.88029)">
    <path
       d="m 763,153 h 3.83889 v -3 h 6.1 v 3 h 6.78889 v -3 h 6.1 v 3 h 6.78889 v -3 h 6.1 v 3 h 6.78889 v -3 h 6.1 v 3 h 6.78888 v -3 h 6.1 v 3 h 6.78889 v -3 h 6.1 v 3 h 6.78889 v -3 h 6.1 v 3 h 6.78889 v -3 h 6.1 v 3 H 867"
       style="fill:none;stroke:#000000;stroke-width:1"
       inkscape:label="part"
       id="path1577"
       inkscape:connector-curvature="0" />
    <path
       d="m 867,153 v 4.95 h 3 v 6.1 h -3 v 7.9 h 3 v 6.1 h -3 v 7.9 h 3 v 6.1 h -3 V 197"
       style="fill:none;stroke:#000000;stroke-width:1"
       inkscape:label="part"
       id="path1579"
       inkscape:connector-curvature="0" />
    <path
       d="m 867,197 h -3.83889 v 3 h -6.1 v -3 h -6.78889 v 3 h -6.1 v -3 h -6.78889 v 3 h -6.1 v -3 h -6.78889 v 3 h -6.1 v -3 h -6.78888 v 3 h -6.1 v -3 h -6.78889 v 3 h -6.1 v -3 h -6.78889 v 3 h -6.1 v -3 h -6.78889 v 3 h -6.1 v -3 H 763"
       style="fill:none;stroke:#000000;stroke-width:1"
       inkscape:label="part"
       id="path1581"
       inkscape:connector-curvature="0" />
    <path
       d="m 763,197 v -4.95 h -3 v -6.1 h 3 v -7.9 h -3 v -6.1 h 3 v -7.9 h -3 v -6.1 h 3 V 153"
       style="fill:none;stroke:#000000;stroke-width:1"
       inkscape:label="part"
       id="path1583"
       inkscape:connector-curvature="0" />
  </g>
  <g
     id="g1639"
     transform="translate(-883.89781,-144.58231)">
    <path
       d="m 890,150 h 6.21327 v 3 h 5.9 v -3 h 6.26326 v 3 h 5.9 v -3 h 6.26327 v 3 h 5.9 v -3 h 6.26326 v 3 h 5.9 v -3 h 6.26327 v 3 h 5.9 v -3 h 6.26326 v 3 h 5.9 v -3 h 6.26327 v 3 h 5.9 v -3 h 6.26326 v 3 h 5.9 v -3 h 6.26327 v 3 h 5.9 v -3 h 6.26331 v 3 h 5.9 v -3 h 6.2632 v 3 h 5.9 v -3 h 6.2633 v 3 h 5.9 v -3 h 6.2632 v 3 h 5.9 v -3 h 6.2633 v 3 h 5.9 v -3 h 6.2633 v 3 h 5.9 v -3 h 6.2632 v 3 h 5.9 v -3 h 6.2633 v 3 h 5.9 v -3 h 6.2633 v 3 h 5.9 v -3 h 6.2632 v 3 h 5.9 v -3 h 6.2633 v 3 h 5.9 v -3 h 6.2633 v 3 h 5.9 v -3 h 6.2632 v 3 h 5.9 v -3 h 6.2633 v 3 h 5.9 v -3 h 6.2633 v 3 h 5.9 v -3 h 6.2632 v 3 h 5.9 v -3 h 6.2633 v 3 h 5.9 v -3 h 6.2633 v 3 h 5.9 v -3 h 6.2632 v 3 h 5.9 v -3 h 6.2633 v 3 h 5.9 v -3 h 6.2633 v 3 h 5.9 v -3 h 6.2632 v 3 h 5.9 v -3 h 6.2633 v 3 h 5.9 v -3 h 6.2633 v 3 h 5.9 v -3 h 6.2632 v 3 h 5.9 v -3 h 6.2633 v 3 h 5.9 v -3 h 6.2633 v 3 h 5.9 v -3 h 6.2632 v 3 h 5.9 v -3 h 6.2633 v 3 h 5.9 v -3 h 6.2632 v 3 h 5.9 v -3 h 6.2633 v 3 h 5.9 v -3 h 6.2633 v 3 h 5.9 v -3 h 6.2632 v 3 h 5.9 v -3 h 6.2633 v 3 h 5.9 v -3 h 6.2633 v 3 h 5.9 v -3 h 6.2632 v 3 h 5.9 v -3 h 6.2633 v 3 h 5.9 v -3 h 6.2633 v 3 h 5.9 v -3 h 6.2632 v 3 h 5.9 v -3 H 1480"
       style="fill:none;stroke:#000000;stroke-width:1"
       inkscape:label="part"
       id="path1585"
       inkscape:connector-curvature="0" />
    <path
       d="m 1480,150 v 8.05 h -3 v 5.9 h 3 v 8.1 h -3 v 5.9 h 3 v 8.1 h -3 v 5.9 h 3 V 200"
       style="fill:none;stroke:#000000;stroke-width:1"
       inkscape:label="part"
       id="path1587"
       inkscape:connector-curvature="0" />
    <path
       d="m 1480,200 h -6.2133 v -3 h -5.9 v 3 h -6.2632 v -3 h -5.9 v 3 h -6.2633 v -3 h -5.9 v 3 h -6.2633 v -3 h -5.9 v 3 h -6.2632 v -3 h -5.9 v 3 h -6.2633 v -3 h -5.9 v 3 h -6.2633 v -3 h -5.9 v 3 h -6.2632 v -3 h -5.9 v 3 h -6.2633 v -3 h -5.9 v 3 h -6.2633 v -3 h -5.9 v 3 h -6.2632 v -3 h -5.9 v 3 h -6.2633 v -3 h -5.9 v 3 h -6.2632 v -3 h -5.9 v 3 h -6.2633 v -3 h -5.9 v 3 h -6.2633 v -3 h -5.9 v 3 h -6.2632 v -3 h -5.9 v 3 h -6.2633 v -3 h -5.9 v 3 h -6.2633 v -3 h -5.9 v 3 h -6.2632 v -3 h -5.9 v 3 h -6.2633 v -3 h -5.9 v 3 h -6.2633 v -3 h -5.9 v 3 h -6.2632 v -3 h -5.9 v 3 h -6.2633 v -3 h -5.9 v 3 h -6.2633 v -3 h -5.9 v 3 h -6.2632 v -3 h -5.9 v 3 h -6.2633 v -3 h -5.9 v 3 h -6.2633 v -3 h -5.9 v 3 h -6.2632 v -3 h -5.9 v 3 h -6.2633 v -3 h -5.9 v 3 h -6.2633 v -3 h -5.9 v 3 h -6.2632 v -3 h -5.9 v 3 h -6.2633 v -3 h -5.9 v 3 h -6.2633 v -3 h -5.9 v 3 h -6.2632 v -3 h -5.9 v 3 h -6.2633 v -3 h -5.9 v 3 h -6.2633 v -3 h -5.9 v 3 h -6.2632 v -3 h -5.9 v 3 h -6.2633 v -3 h -5.9 v 3 h -6.2632 v -3 h -5.9 v 3 h -6.26331 v -3 h -5.9 v 3 h -6.26327 v -3 h -5.9 v 3 h -6.26326 v -3 h -5.9 v 3 h -6.26327 v -3 h -5.9 v 3 h -6.26326 v -3 h -5.9 v 3 h -6.26327 v -3 h -5.9 v 3 h -6.26326 v -3 h -5.9 v 3 h -6.26327 v -3 h -5.9 v 3 h -6.26326 v -3 h -5.9 v 3 H 890"
       style="fill:none;stroke:#000000;stroke-width:1"
       inkscape:label="part"
       id="path1589"
       inkscape:connector-curvature="0" />
    <path
       d="m 890,200 v -8.05 h 3 v -5.9 h -3 v -8.1 h 3 v -5.9 h -3 v -8.1 h 3 v -5.9 h -3 V 150"
       style="fill:none;stroke:#000000;stroke-width:1"
       inkscape:label="part"
       id="path1591"
       inkscape:connector-curvature="0" />
  </g>
  <g
     id="g1657"
     transform="translate(-143.7978,201.94275)">
    <path
       d="m 150,23 h 6.11327 v -3 h 6.1 v 3 h 6.06326 v -3 h 6.1 v 3 h 6.06327 v -3 h 6.1 v 3 h 6.06326 v -3 h 6.1 v 3 h 6.06327 v -3 h 6.1 v 3 h 6.06326 v -3 h 6.1 v 3 h 6.06327 v -3 h 6.1 v 3 h 6.06326 v -3 h 6.1 v 3 h 6.06327 v -3 h 6.1 v 3 h 6.06326 v -3 h 6.1 v 3 h 6.06327 v -3 h 6.1 v 3 h 6.06326 v -3 h 6.1 v 3 h 6.06327 v -3 h 6.1 v 3 h 6.06326 v -3 h 6.1 v 3 h 6.06327 v -3 h 6.1 v 3 h 6.06326 v -3 h 6.1 v 3 h 6.06327 v -3 h 6.1 v 3 h 6.06327 v -3 h 6.1 v 3 h 6.06326 v -3 h 6.1 v 3 h 6.06327 v -3 h 6.1 v 3 h 6.06326 v -3 h 6.1 v 3 h 6.06327 v -3 h 6.1 v 3 h 6.06326 v -3 h 6.1 v 3 h 6.06327 v -3 h 6.1 v 3 h 6.06326 v -3 h 6.1 v 3 h 6.06327 v -3 h 6.1 v 3 h 6.06326 v -3 h 6.1 v 3 h 6.06327 v -3 h 6.1 v 3 h 6.06326 v -3 h 6.1 v 3 h 6.06327 v -3 h 6.1 v 3 h 6.06326 v -3 h 6.1 v 3 h 6.06327 v -3 h 6.1 v 3 h 6.06327 v -3 h 6.1 v 3 h 6.06326 v -3 h 6.1 v 3 h 6.06327 v -3 h 6.1 v 3 h 6.06326 v -3 h 6.1 v 3 h 6.06327 v -3 h 6.1 v 3 h 6.06326 v -3 h 6.1 v 3 h 6.06327 v -3 h 6.1 v 3 h 6.06326 v -3 h 6.1 v 3 h 6.06327 v -3 h 6.1 v 3 h 6.06326 v -3 h 6.1 v 3 h 6.06327 v -3 h 6.1 v 3 h 6.06326 v -3 h 6.1 v 3 h 6.06327 v -3 h 6.1 v 3 h 6.06326 v -3 h 6.1 v 3 h 6.06327 v -3 h 6.1 v 3 h 6.06326 v -3 h 6.1 v 3 H 740"
       style="fill:none;stroke:#000000;stroke-width:1"
       inkscape:label="part"
       id="path1593"
       inkscape:connector-curvature="0" />
    <path
       d="m 740,23 v 3.938889 h -3 v 5.9 h 3 v 6.988889 h -3 v 5.9 h 3 v 6.988889 h -3 v 5.9 h 3 v 6.988889 h -3 v 5.9 h 3 v 6.988888 h -3 v 5.9 h 3 v 6.988889 h -3 v 5.9 h 3 v 6.988887 h -3 v 5.9 h 3 v 6.98889 h -3 v 5.9 h 3 V 127"
       style="fill:none;stroke:#000000;stroke-width:1"
       inkscape:label="part"
       id="path1595"
       inkscape:connector-curvature="0" />
    <path
       d="m 740,127 h -6.11327 v 3 h -6.1 v -3 h -6.06326 v 3 h -6.1 v -3 h -6.06327 v 3 h -6.1 v -3 h -6.06326 v 3 h -6.1 v -3 h -6.06327 v 3 h -6.1 v -3 h -6.06326 v 3 h -6.1 v -3 h -6.06327 v 3 h -6.1 v -3 h -6.06326 v 3 h -6.1 v -3 h -6.06327 v 3 h -6.1 v -3 h -6.06326 v 3 h -6.1 v -3 h -6.06327 v 3 h -6.1 v -3 h -6.06326 v 3 h -6.1 v -3 h -6.06327 v 3 h -6.1 v -3 h -6.06326 v 3 h -6.1 v -3 h -6.06327 v 3 h -6.1 v -3 h -6.06326 v 3 h -6.1 v -3 h -6.06327 v 3 h -6.1 v -3 h -6.06327 v 3 h -6.1 v -3 h -6.06326 v 3 h -6.1 v -3 h -6.06327 v 3 h -6.1 v -3 h -6.06326 v 3 h -6.1 v -3 h -6.06327 v 3 h -6.1 v -3 h -6.06326 v 3 h -6.1 v -3 h -6.06327 v 3 h -6.1 v -3 h -6.06326 v 3 h -6.1 v -3 h -6.06327 v 3 h -6.1 v -3 h -6.06326 v 3 h -6.1 v -3 h -6.06327 v 3 h -6.1 v -3 h -6.06326 v 3 h -6.1 v -3 h -6.06327 v 3 h -6.1 v -3 h -6.06326 v 3 h -6.1 v -3 h -6.06327 v 3 h -6.1 v -3 h -6.06327 v 3 h -6.1 v -3 h -6.06326 v 3 h -6.1 v -3 h -6.06327 v 3 h -6.1 v -3 h -6.06326 v 3 h -6.1 v -3 h -6.06327 v 3 h -6.1 v -3 h -6.06326 v 3 h -6.1 v -3 h -6.06327 v 3 h -6.1 v -3 h -6.06326 v 3 h -6.1 v -3 h -6.06327 v 3 h -6.1 v -3 h -6.06326 v 3 h -6.1 v -3 h -6.06327 v 3 h -6.1 v -3 h -6.06326 v 3 h -6.1 v -3 h -6.06327 v 3 h -6.1 v -3 h -6.06326 v 3 h -6.1 v -3 h -6.06327 v 3 h -6.1 v -3 h -6.06326 v 3 h -6.1 v -3 H 150"
       style="fill:none;stroke:#000000;stroke-width:1"
       inkscape:label="part"
       id="path1597"
       inkscape:connector-curvature="0" />
    <path
       d="m 150,127 v -3.93889 h 3 v -5.9 h -3 v -6.98889 h 3 v -5.9 h -3 v -6.988887 h 3 v -5.9 h -3 v -6.988889 h 3 v -5.9 h -3 v -6.988888 h 3 v -5.9 h -3 v -6.988889 h 3 v -5.9 h -3 v -6.988889 h 3 v -5.9 h -3 v -6.988889 h 3 v -5.9 h -3 V 23"
       style="fill:none;stroke:#000000;stroke-width:1"
       inkscape:label="part"
       id="path1599"
       inkscape:connector-curvature="0" />
  </g>
  <g
     id="g1696"
     transform="translate(-0.4849415,-2.9162113)"
     style="stroke-width:0.02;stroke-miterlimit:4;stroke-dasharray:none">
    <circle
       r="36.980534"
       cy="112.40425"
       cx="70.131721"
       id="path1690"
       style="fill:none;fill-opacity:1;stroke:#000000;stroke-width:0.02;stroke-linejoin:round;stroke-miterlimit:4;stroke-dasharray:none;stroke-opacity:1" />
    <circle
       style="fill:none;fill-opacity:1;stroke:#000000;stroke-width:0.02;stroke-linejoin:round;stroke-miterlimit:4;stroke-dasharray:none;stroke-opacity:1"
       id="circle1692"
       cx="533.04254"
       cy="112.40425"
       r="36.980534" />
  </g>
  <circle
     style="fill:#000000;fill-opacity:1;stroke:#000000;stroke-width:0.00419802;stroke-linejoin:round;stroke-miterlimit:4;stroke-dasharray:none;stroke-opacity:1"
     id="circle1704"
     cx="2"
     cy="142.30618"
     r="1.997901" />
  <g
     id="g1791">
    <g
       transform="translate(0,4.089811)"
       id="g1729">
      <circle
         style="fill:none;fill-opacity:1;stroke:#000000;stroke-width:0.02;stroke-linejoin:round;stroke-miterlimit:4;stroke-dasharray:none;stroke-opacity:1"
         id="path1700"
         cx="127"
         cy="148"
         r="1.997901" />
      <circle
         r="1.997901"
         cy="148"
         cx="148.5"
         id="circle1702"
         style="fill:none;fill-opacity:1;stroke:#000000;stroke-width:0.02;stroke-linejoin:round;stroke-miterlimit:4;stroke-dasharray:none;stroke-opacity:1" />
      <circle
         r="1.997901"
         cy="148"
         cx="137"
         id="circle1706"
         style="fill:none;fill-opacity:1;stroke:#000000;stroke-width:0.02;stroke-linejoin:round;stroke-miterlimit:4;stroke-dasharray:none;stroke-opacity:1" />
      <circle
         style="fill:none;fill-opacity:1;stroke:#000000;stroke-width:0.02;stroke-linejoin:round;stroke-miterlimit:4;stroke-dasharray:none;stroke-opacity:1"
         id="circle1708"
         cx="160"
         cy="148"
         r="1.997901" />
      <circle
         r="1.997901"
         cy="148"
         cx="170"
         id="circle1710"
         style="fill:none;fill-opacity:1;stroke:#000000;stroke-width:0.02;stroke-linejoin:round;stroke-miterlimit:4;stroke-dasharray:none;stroke-opacity:1" />
    </g>
    <g
       transform="translate(197.71072,4.089811)"
       id="g1741">
      <circle
         r="1.997901"
         cy="148"
         cx="127"
         id="circle1731"
         style="fill:none;fill-opacity:1;stroke:#000000;stroke-width:0.02;stroke-linejoin:round;stroke-miterlimit:4;stroke-dasharray:none;stroke-opacity:1" />
      <circle
         style="fill:none;fill-opacity:1;stroke:#000000;stroke-width:0.02;stroke-linejoin:round;stroke-miterlimit:4;stroke-dasharray:none;stroke-opacity:1"
         id="circle1733"
         cx="148.5"
         cy="148"
         r="1.997901" />
      <circle
         style="fill:none;fill-opacity:1;stroke:#000000;stroke-width:0.02;stroke-linejoin:round;stroke-miterlimit:4;stroke-dasharray:none;stroke-opacity:1"
         id="circle1735"
         cx="137"
         cy="148"
         r="1.997901" />
      <circle
         r="1.997901"
         cy="148"
         cx="160"
         id="circle1737"
         style="fill:none;fill-opacity:1;stroke:#000000;stroke-width:0.02;stroke-linejoin:round;stroke-miterlimit:4;stroke-dasharray:none;stroke-opacity:1" />
      <circle
         style="fill:none;fill-opacity:1;stroke:#000000;stroke-width:0.02;stroke-linejoin:round;stroke-miterlimit:4;stroke-dasharray:none;stroke-opacity:1"
         id="circle1739"
         cx="170"
         cy="148"
         r="1.997901" />
    </g>
    <g
       id="g1753"
       transform="translate(296.56606,4.089811)">
      <circle
         style="fill:none;fill-opacity:1;stroke:#000000;stroke-width:0.02;stroke-linejoin:round;stroke-miterlimit:4;stroke-dasharray:none;stroke-opacity:1"
         id="circle1743"
         cx="127"
         cy="148"
         r="1.997901" />
      <circle
         r="1.997901"
         cy="148"
         cx="148.5"
         id="circle1745"
         style="fill:none;fill-opacity:1;stroke:#000000;stroke-width:0.02;stroke-linejoin:round;stroke-miterlimit:4;stroke-dasharray:none;stroke-opacity:1" />
      <circle
         r="1.997901"
         cy="148"
         cx="137"
         id="circle1747"
         style="fill:none;fill-opacity:1;stroke:#000000;stroke-width:0.02;stroke-linejoin:round;stroke-miterlimit:4;stroke-dasharray:none;stroke-opacity:1" />
      <circle
         style="fill:none;fill-opacity:1;stroke:#000000;stroke-width:0.02;stroke-linejoin:round;stroke-miterlimit:4;stroke-dasharray:none;stroke-opacity:1"
         id="circle1749"
         cx="160"
         cy="148"
         r="1.997901" />
      <circle
         r="1.997901"
         cy="148"
         cx="170"
         id="circle1751"
         style="fill:none;fill-opacity:1;stroke:#000000;stroke-width:0.02;stroke-linejoin:round;stroke-miterlimit:4;stroke-dasharray:none;stroke-opacity:1" />
    </g>
    <g
       transform="translate(98.855347,4.089811)"
       id="g1765">
      <circle
         r="1.997901"
         cy="148"
         cx="127"
         id="circle1755"
         style="fill:none;fill-opacity:1;stroke:#000000;stroke-width:0.02;stroke-linejoin:round;stroke-miterlimit:4;stroke-dasharray:none;stroke-opacity:1" />
      <circle
         style="fill:none;fill-opacity:1;stroke:#000000;stroke-width:0.02;stroke-linejoin:round;stroke-miterlimit:4;stroke-dasharray:none;stroke-opacity:1"
         id="circle1757"
         cx="148.5"
         cy="148"
         r="1.997901" />
      <circle
         style="fill:none;fill-opacity:1;stroke:#000000;stroke-width:0.02;stroke-linejoin:round;stroke-miterlimit:4;stroke-dasharray:none;stroke-opacity:1"
         id="circle1759"
         cx="137"
         cy="148"
         r="1.997901" />
      <circle
         r="1.997901"
         cy="148"
         cx="160"
         id="circle1761"
         style="fill:none;fill-opacity:1;stroke:#000000;stroke-width:0.02;stroke-linejoin:round;stroke-miterlimit:4;stroke-dasharray:none;stroke-opacity:1" />
      <circle
         style="fill:none;fill-opacity:1;stroke:#000000;stroke-width:0.02;stroke-linejoin:round;stroke-miterlimit:4;stroke-dasharray:none;stroke-opacity:1"
         id="circle1763"
         cx="170"
         cy="148"
         r="1.997901" />
    </g>
  </g>
  <g
     id="g1985">
    <g
       style="stroke-width:0.02;stroke-miterlimit:4;stroke-dasharray:none"
       id="g1801"
       transform="translate(-207.94226,211.80119)">
      <path
         d="m 763,153 h 3.83889 v -3 h 6.1 v 3 h 6.78889 v -3 h 6.1 v 3 h 6.78889 v -3 h 6.1 v 3 h 6.78889 v -3 h 6.1 v 3 h 6.78888 v -3 h 6.1 v 3 h 6.78889 v -3 h 6.1 v 3 h 6.78889 v -3 h 6.1 v 3 h 6.78889 v -3 h 6.1 v 3 H 867"
         style="fill:none;stroke:#000000;stroke-width:0.02;stroke-miterlimit:4;stroke-dasharray:none"
         inkscape:label="part"
         id="path1793"
         inkscape:connector-curvature="0" />
      <path
         d="m 867,153 v 4.95 h 3 v 6.1 h -3 v 7.9 h 3 v 6.1 h -3 v 7.9 h 3 v 6.1 h -3 V 197"
         style="fill:none;stroke:#000000;stroke-width:0.02;stroke-miterlimit:4;stroke-dasharray:none"
         inkscape:label="part"
         id="path1795"
         inkscape:connector-curvature="0" />
      <path
         d="m 867,197 h -3.83889 v 3 h -6.1 v -3 h -6.78889 v 3 h -6.1 v -3 h -6.78889 v 3 h -6.1 v -3 h -6.78889 v 3 h -6.1 v -3 h -6.78888 v 3 h -6.1 v -3 h -6.78889 v 3 h -6.1 v -3 h -6.78889 v 3 h -6.1 v -3 h -6.78889 v 3 h -6.1 v -3 H 763"
         style="fill:none;stroke:#000000;stroke-width:0.02;stroke-miterlimit:4;stroke-dasharray:none"
         inkscape:label="part"
         id="path1797"
         inkscape:connector-curvature="0" />
      <path
         d="m 763,197 v -4.95 h -3 v -6.1 h 3 v -7.9 h -3 v -6.1 h 3 v -7.9 h -3 v -6.1 h 3 V 153"
         style="fill:none;stroke:#000000;stroke-width:0.02;stroke-miterlimit:4;stroke-dasharray:none"
         inkscape:label="part"
         id="path1799"
         inkscape:connector-curvature="0" />
    </g>
    <circle
       r="36.980534"
       cy="395.12399"
       cx="505.98682"
       id="circle1805"
       style="fill:none;fill-opacity:1;stroke:#000000;stroke-width:0.02;stroke-linejoin:round;stroke-miterlimit:4;stroke-dasharray:none;stroke-opacity:1" />
    <g
       style="stroke-width:0.02;stroke-miterlimit:4;stroke-dasharray:none"
       id="g1819"
       transform="translate(-423.8299,217.11534)">
      <path
         d="m 763,153 h 3.83889 v -3 h 6.1 v 3 h 6.78889 v -3 h 6.1 v 3 h 6.78889 v -3 h 6.1 v 3 h 6.78889 v -3 h 6.1 v 3 h 6.78888 v -3 h 6.1 v 3 h 6.78889 v -3 h 6.1 v 3 h 6.78889 v -3 h 6.1 v 3 h 6.78889 v -3 h 6.1 v 3 H 867"
         style="fill:none;stroke:#000000;stroke-width:0.02;stroke-miterlimit:4;stroke-dasharray:none"
         inkscape:label="part"
         id="path1811"
         inkscape:connector-curvature="0" />
      <path
         d="m 867,153 v 4.95 h 3 v 6.1 h -3 v 7.9 h 3 v 6.1 h -3 v 7.9 h 3 v 6.1 h -3 V 197"
         style="fill:none;stroke:#000000;stroke-width:0.02;stroke-miterlimit:4;stroke-dasharray:none"
         inkscape:label="part"
         id="path1813"
         inkscape:connector-curvature="0" />
      <path
         d="m 867,197 h -3.83889 v 3 h -6.1 v -3 h -6.78889 v 3 h -6.1 v -3 h -6.78889 v 3 h -6.1 v -3 h -6.78889 v 3 h -6.1 v -3 h -6.78888 v 3 h -6.1 v -3 h -6.78889 v 3 h -6.1 v -3 h -6.78889 v 3 h -6.1 v -3 h -6.78889 v 3 h -6.1 v -3 H 763"
         style="fill:none;stroke:#000000;stroke-width:0.02;stroke-miterlimit:4;stroke-dasharray:none"
         inkscape:label="part"
         id="path1815"
         inkscape:connector-curvature="0" />
      <path
         d="m 763,197 v -4.95 h -3 v -6.1 h 3 v -7.9 h -3 v -6.1 h 3 v -7.9 h -3 v -6.1 h 3 V 153"
         style="fill:none;stroke:#000000;stroke-width:0.02;stroke-miterlimit:4;stroke-dasharray:none"
         inkscape:label="part"
         id="path1817"
         inkscape:connector-curvature="0" />
    </g>
    <g
       transform="translate(173.37438,284.30742)"
       id="g1869">
      <g
         transform="translate(0,4.089811)"
         id="g1831">
        <circle
           style="fill:none;fill-opacity:1;stroke:#000000;stroke-width:0.02;stroke-linejoin:round;stroke-miterlimit:4;stroke-dasharray:none;stroke-opacity:1"
           id="circle1821"
           cx="127"
           cy="148"
           r="1.997901" />
        <circle
           r="1.997901"
           cy="148"
           cx="148.5"
           id="circle1823"
           style="fill:none;fill-opacity:1;stroke:#000000;stroke-width:0.02;stroke-linejoin:round;stroke-miterlimit:4;stroke-dasharray:none;stroke-opacity:1" />
        <circle
           r="1.997901"
           cy="148"
           cx="137"
           id="circle1825"
           style="fill:none;fill-opacity:1;stroke:#000000;stroke-width:0.02;stroke-linejoin:round;stroke-miterlimit:4;stroke-dasharray:none;stroke-opacity:1" />
        <circle
           style="fill:none;fill-opacity:1;stroke:#000000;stroke-width:0.02;stroke-linejoin:round;stroke-miterlimit:4;stroke-dasharray:none;stroke-opacity:1"
           id="circle1827"
           cx="160"
           cy="148"
           r="1.997901" />
        <circle
           r="1.997901"
           cy="148"
           cx="170"
           id="circle1829"
           style="fill:none;fill-opacity:1;stroke:#000000;stroke-width:0.02;stroke-linejoin:round;stroke-miterlimit:4;stroke-dasharray:none;stroke-opacity:1" />
      </g>
      <g
         transform="translate(197.71072,4.089811)"
         id="g1843">
        <circle
           r="1.997901"
           cy="148"
           cx="127"
           id="circle1833"
           style="fill:none;fill-opacity:1;stroke:#000000;stroke-width:0.02;stroke-linejoin:round;stroke-miterlimit:4;stroke-dasharray:none;stroke-opacity:1" />
        <circle
           style="fill:none;fill-opacity:1;stroke:#000000;stroke-width:0.02;stroke-linejoin:round;stroke-miterlimit:4;stroke-dasharray:none;stroke-opacity:1"
           id="circle1835"
           cx="148.5"
           cy="148"
           r="1.997901" />
        <circle
           style="fill:none;fill-opacity:1;stroke:#000000;stroke-width:0.02;stroke-linejoin:round;stroke-miterlimit:4;stroke-dasharray:none;stroke-opacity:1"
           id="circle1837"
           cx="137"
           cy="148"
           r="1.997901" />
        <circle
           r="1.997901"
           cy="148"
           cx="160"
           id="circle1839"
           style="fill:none;fill-opacity:1;stroke:#000000;stroke-width:0.02;stroke-linejoin:round;stroke-miterlimit:4;stroke-dasharray:none;stroke-opacity:1" />
        <circle
           style="fill:none;fill-opacity:1;stroke:#000000;stroke-width:0.02;stroke-linejoin:round;stroke-miterlimit:4;stroke-dasharray:none;stroke-opacity:1"
           id="circle1841"
           cx="170"
           cy="148"
           r="1.997901" />
      </g>
      <g
         id="g1855"
         transform="translate(296.56606,4.089811)">
        <circle
           style="fill:none;fill-opacity:1;stroke:#000000;stroke-width:0.02;stroke-linejoin:round;stroke-miterlimit:4;stroke-dasharray:none;stroke-opacity:1"
           id="circle1845"
           cx="127"
           cy="148"
           r="1.997901" />
        <circle
           r="1.997901"
           cy="148"
           cx="148.5"
           id="circle1847"
           style="fill:none;fill-opacity:1;stroke:#000000;stroke-width:0.02;stroke-linejoin:round;stroke-miterlimit:4;stroke-dasharray:none;stroke-opacity:1" />
        <circle
           r="1.997901"
           cy="148"
           cx="137"
           id="circle1849"
           style="fill:none;fill-opacity:1;stroke:#000000;stroke-width:0.02;stroke-linejoin:round;stroke-miterlimit:4;stroke-dasharray:none;stroke-opacity:1" />
        <circle
           style="fill:none;fill-opacity:1;stroke:#000000;stroke-width:0.02;stroke-linejoin:round;stroke-miterlimit:4;stroke-dasharray:none;stroke-opacity:1"
           id="circle1851"
           cx="160"
           cy="148"
           r="1.997901" />
        <circle
           r="1.997901"
           cy="148"
           cx="170"
           id="circle1853"
           style="fill:none;fill-opacity:1;stroke:#000000;stroke-width:0.02;stroke-linejoin:round;stroke-miterlimit:4;stroke-dasharray:none;stroke-opacity:1" />
      </g>
      <g
         transform="translate(98.855347,4.089811)"
         id="g1867">
        <circle
           r="1.997901"
           cy="148"
           cx="127"
           id="circle1857"
           style="fill:none;fill-opacity:1;stroke:#000000;stroke-width:0.02;stroke-linejoin:round;stroke-miterlimit:4;stroke-dasharray:none;stroke-opacity:1" />
        <circle
           style="fill:none;fill-opacity:1;stroke:#000000;stroke-width:0.02;stroke-linejoin:round;stroke-miterlimit:4;stroke-dasharray:none;stroke-opacity:1"
           id="circle1859"
           cx="148.5"
           cy="148"
           r="1.997901" />
        <circle
           style="fill:none;fill-opacity:1;stroke:#000000;stroke-width:0.02;stroke-linejoin:round;stroke-miterlimit:4;stroke-dasharray:none;stroke-opacity:1"
           id="circle1861"
           cx="137"
           cy="148"
           r="1.997901" />
        <circle
           r="1.997901"
           cy="148"
           cx="160"
           id="circle1863"
           style="fill:none;fill-opacity:1;stroke:#000000;stroke-width:0.02;stroke-linejoin:round;stroke-miterlimit:4;stroke-dasharray:none;stroke-opacity:1" />
        <circle
           style="fill:none;fill-opacity:1;stroke:#000000;stroke-width:0.02;stroke-linejoin:round;stroke-miterlimit:4;stroke-dasharray:none;stroke-opacity:1"
           id="circle1865"
           cx="170"
           cy="148"
           r="1.997901" />
      </g>
    </g>
    <rect
       ry="16.610489"
       y="350.84406"
       x="261.05798"
       height="105.61887"
       width="431.11102"
       id="rect1942"
       style="fill:none;fill-opacity:1;stroke:#000000;stroke-width:0.5;stroke-linejoin:round;stroke-miterlimit:4;stroke-dasharray:none;stroke-opacity:1" />
  </g>
</svg>
