<?xml version="1.0" encoding="utf-8"?>
<!-- Generator: Adobe Illustrator 22.0.1, SVG Export Plug-In . SVG Version: 6.00 Build 0)  -->
<svg version="1.1"
	 id="svg8" inkscape:version="0.92.2 5c3e80d, 2017-08-06" sodipodi:docname="Music_Box_Proto1.svg" xmlns:cc="http://creativecommons.org/ns#" xmlns:dc="http://purl.org/dc/elements/1.1/" xmlns:inkscape="http://www.inkscape.org/namespaces/inkscape" xmlns:rdf="http://www.w3.org/1999/02/22-rdf-syntax-ns#" xmlns:sodipodi="http://sodipodi.sourceforge.net/DTD/sodipodi-0.dtd" xmlns:svg="http://www.w3.org/2000/svg"
	 xmlns="http://www.w3.org/2000/svg" xmlns:xlink="http://www.w3.org/1999/xlink" x="0px" y="0px" viewBox="0 0 1700.8 1133.9"
	 style="enable-background:new 0 0 1700.8 1133.9;" xml:space="preserve">
<style type="text/css">
	.st0{fill:none;stroke:#000000;stroke-width:7.098329e-02;}
</style>
<sodipodi:namedview  bordercolor="#666666" borderopacity="1.0" id="base" inkscape:current-layer="svg8" inkscape:cx="1810.1849" inkscape:cy="532.00407" inkscape:document-units="mm" inkscape:pageopacity="0.0" inkscape:pageshadow="2" inkscape:window-height="855" inkscape:window-maximized="1" inkscape:window-width="1401" inkscape:window-x="0" inkscape:window-y="1" inkscape:zoom="0.39830712" pagecolor="#ffffff" showgrid="false" width="600mm">
	</sodipodi:namedview>
<g id="layer1" transform="translate(0,103)" inkscape:groupmode="layer" inkscape:label="Layer 1">
</g>
<g id="g867" transform="translate(0,103)" inkscape:groupmode="layer" inkscape:label="newlayer">
</g>
<g id="g992" inkscape:groupmode="layer" inkscape:label="newlayer">
</g>
<g id="g1102" inkscape:groupmode="layer" inkscape:label="newlayer">
</g>
<g id="g1325" inkscape:groupmode="layer" inkscape:label="newlayer">
</g>
<g id="g1415" inkscape:groupmode="layer" inkscape:label="newlayer">
</g>
<g id="g1551" inkscape:groupmode="layer" inkscape:label="newlayer">
</g>
<g id="g1639" transform="translate(-883.89781,-144.58231)">
	<path id="path1585" inkscape:connector-curvature="0" inkscape:label="part" class="st0" d="M899.8,159.8h17.6v8.5h16.8v-8.5H952
		v8.5h16.8v-8.5h17.8v8.5h16.8v-8.5h17.8v8.5h16.8v-8.5h17.8v8.5h16.8v-8.5h17.8v8.5h16.8v-8.5h17.8v8.5h16.8v-8.5h17.8v8.5h16.8
		v-8.5h17.8v8.5h16.8v-8.5h17.8v8.5h16.8v-8.5h17.8v8.5h16.8v-8.5h17.8v8.5h16.8v-8.5h17.8v8.5h16.8v-8.5h17.8v8.5h16.8v-8.5h17.8
		v8.5h16.8v-8.5h17.8v8.5h16.8v-8.5h17.8v8.5h16.8v-8.5h17.8v8.5h16.8v-8.5h17.8v8.5h16.8v-8.5h17.8v8.5h16.8v-8.5h17.8v8.5h16.8
		v-8.5h17.8v8.5h16.8v-8.5h17.8v8.5h16.8v-8.5h17.8v8.5h16.8v-8.5h17.8v8.5h16.8v-8.5h17.8v8.5h16.8v-8.5h17.8v8.5h16.8v-8.5h17.8
		v8.5h16.8v-8.5h17.8v8.5h16.8v-8.5h17.8v8.5h16.8v-8.5h17.8v8.5h16.8v-8.5h17.8v8.5h16.8v-8.5h17.8v8.5h16.8v-8.5h17.8v8.5h16.8
		v-8.5h17.8v8.5h16.8v-8.5h17.8v8.5h16.8v-8.5h17.8v8.5h16.8v-8.5h17.8v8.5h16.8v-8.5h17.8v8.5h16.8v-8.5h17.8v8.5h16.8v-8.5h17.8
		v8.5h16.8v-8.5h17.8v8.5h16.8v-8.5h17.8v8.5h16.8v-8.5h17.8v8.5h16.8v-8.5h17.8v8.5h16.8v-8.5h17.8v8.5h16.8v-8.5h17.8v8.5h16.8
		v-8.5h17.8v8.5h16.8v-8.5h17.6"/>
	<path id="path1587" inkscape:connector-curvature="0" inkscape:label="part" class="st0" d="M2575,159.8v22.9h-8.5v16.8h8.5v23
		h-8.5v16.8h8.5v23h-8.5v16.8h8.5v22.9"/>
	<path id="path1589" inkscape:connector-curvature="0" inkscape:label="part" class="st0" d="M2575,301.8h-17.6v-8.5h-16.8v8.5
		h-17.8v-8.5h-16.8v8.5h-17.8v-8.5h-16.8v8.5h-17.8v-8.5H2437v8.5h-17.8v-8.5h-16.8v8.5h-17.8v-8.5h-16.8v8.5h-17.8v-8.5h-16.8v8.5
		h-17.8v-8.5h-16.8v8.5h-17.8v-8.5h-16.8v8.5h-17.8v-8.5h-16.8v8.5H2212v-8.5h-16.8v8.5h-17.8v-8.5h-16.8v8.5h-17.8v-8.5h-16.8v8.5
		h-17.8v-8.5h-16.8v8.5h-17.8v-8.5h-16.8v8.5h-17.8v-8.5h-16.8v8.5h-17.8v-8.5h-16.8v8.5h-17.8v-8.5h-16.8v8.5h-17.8v-8.5H1919v8.5
		h-17.8v-8.5h-16.8v8.5h-17.8v-8.5h-16.8v8.5h-17.8v-8.5h-16.8v8.5h-17.8v-8.5h-16.8v8.5h-17.8v-8.5h-16.8v8.5h-17.8v-8.5h-16.8v8.5
		H1694v-8.5h-16.8v8.5h-17.8v-8.5h-16.8v8.5h-17.8v-8.5h-16.8v8.5h-17.8v-8.5h-16.8v8.5h-17.8v-8.5h-16.8v8.5h-17.8v-8.5h-16.8v8.5
		h-17.8v-8.5H1470v8.5h-17.8v-8.5h-16.8v8.5h-17.8v-8.5H1401v8.5h-17.8v-8.5h-16.8v8.5h-17.8v-8.5h-16.8v8.5h-17.8v-8.5h-16.8v8.5
		h-17.8v-8.5h-16.8v8.5H1245v-8.5h-16.8v8.5h-17.8v-8.5h-16.8v8.5H1176v-8.5h-16.8v8.5h-17.8v-8.5h-16.8v8.5h-17.8v-8.5h-16.8v8.5
		h-17.8v-8.5h-16.8v8.5h-17.8v-8.5h-16.8v8.5h-17.8v-8.5h-16.8v8.5h-17.8v-8.5H952v8.5h-17.8v-8.5h-16.8v8.5h-17.6"/>
	<path id="path1591" inkscape:connector-curvature="0" inkscape:label="part" class="st0" d="M899.8,301.8v-22.9h8.5v-16.8h-8.5v-23
		h8.5v-16.8h-8.5v-23h8.5v-16.8h-8.5v-22.9"/>
</g>
<g id="cLbVCj.tif">
	
		<image style="overflow:visible;" width="10000" height="852" id="Layer_1_2_" xlink:href="A26BE6AE817051A1.png"  transform="matrix(0.1417 0 0 0.1417 144.8565 23.7581)">
	</image>
</g>
</svg>
